# xmcd CD database file
#
# Track frame offsets:
#	150
#	15241
#	35720
#	51654
#	63426
#	74210
#	94310
#	108248
#	120458
#	136424
#
# Disc length: 2051 seconds
#
# Revision: 3
# Processed by: cddbd v1.5.2PL0 Copyright (c) Steve Scherf et al.
# Submitted via: CDex 1.51
#
DISCID=9308010a
DTITLE=Lacy J. Dalton - Chains On The Wind
DYEAR=1992
DGENRE=Country
TTITLE0=Heartache In Disguise
TTITLE1=Chains On The Wind
TTITLE2=Rocks From A Rolling Stone
TTITLE3=Love Hurts
TTITLE4=Bye Bye Love
TTITLE5=StayWith Me
TTITLE6=Here Today Here Tomorrow
TTITLE7=Never Gonna Lose My Love
TTITLE8=Lay A Little Love On Me
TTITLE9=Like The Answer To A Prayer
EXTD=YEAR: 1992
EXTT0=
EXTT1=
EXTT2=
EXTT3=
EXTT4=
EXTT5=
EXTT6=
EXTT7=
EXTT8=
EXTT9=
PLAYORDER=
